<?xml version="1.0" encoding="iso-8859-1"?>
<!-- Generator: Adobe Illustrator 19.0.0, SVG Export Plug-In . SVG Version: 6.00 Build 0)  -->
<svg version="1.1" id="Capa_1" xmlns="http://www.w3.org/2000/svg" xmlns:xlink="http://www.w3.org/1999/xlink" x="0px" y="0px"
	 viewBox="0 0 512.003 512.003" style="enable-background:new 0 0 512.003 512.003;" xml:space="preserve">
<path style="fill:#FFF0C0;" d="M488.614,257.983c0,82.579-31.551,149.729-103.183,187.292
	c-40.809,21.4-86.507,51.945-136.054,51.945c-82.339,0-151.567-32.514-186.51-104.926C42.746,350.597,10.14,307.77,10.14,257.983
	c0-56.787,28.374-112.924,65.831-149.975c48.346-47.822,98.066-89.263,173.406-89.263c59.444,0,108.884,28.413,155.666,57.565
	C462.96,112.402,488.614,185.3,488.614,257.983z"/>
<path style="opacity:0.2;fill:#C97B00;enable-background:new    ;" d="M249.376,497.22c49.548,0,95.245-30.545,136.054-51.945
	c3.214-1.685,6.343-3.432,9.396-5.236c-242.838,75.031-298.8-291.63-230.29-401.121c-32.967,16.619-60.991,41.814-88.566,69.089
	c-37.457,37.051-65.831,93.188-65.831,149.975c0,49.788,32.606,92.615,52.728,134.311C97.809,464.706,167.037,497.22,249.376,497.22
	z"/>
<g>
	<path style="fill:#DDAF89;" d="M377.715,208.051c-3.888,0-7.176-2.999-7.471-6.939c-1.803-24.018,9.268-52.776,30.373-78.904
		c20.401-25.255,45.28-41.8,66.551-44.258c4.12-0.477,7.836,2.474,8.311,6.589c0.476,4.115-2.475,7.836-6.589,8.312
		c-17.196,1.987-38.886,16.848-56.604,38.783c-18.457,22.849-28.582,48.402-27.085,68.355c0.311,4.131-2.787,7.73-6.917,8.04
		C378.092,208.044,377.903,208.051,377.715,208.051z"/>
	<path style="fill:#DDAF89;" d="M403.839,137.743c-3.36,0.001-6.376-2.269-7.246-5.597c-2.074-4.339-19.486-22.486-38.667-28.484
		c-3.953-1.236-6.156-5.443-4.92-9.396c1.236-3.952,5.441-6.155,9.397-4.92c22.554,7.053,46.898,29.756,48.804,39.45
		c0.799,4.064-1.849,8.007-5.913,8.806C404.804,137.697,404.318,137.743,403.839,137.743z M396.653,132.28h0.01H396.653z
		 M396.487,131.689c0.001,0.002,0.001,0.004,0.001,0.006C396.488,131.692,396.488,131.691,396.487,131.689z"/>
</g>
<g>
	<path style="fill:#A28577;" d="M196.234,327.151c-1.956,0-3.91-0.761-5.381-2.274c-11.234-11.566-29.453-55.847-17.389-85.457
		c4.753-11.668,6.631-34.246,4.784-57.52c-1.903-23.979-7.38-43.646-14.292-51.327c-2.771-3.079-2.521-7.821,0.557-10.592
		s7.82-2.523,10.592,0.557c13.186,14.65,17.048,46.963,18.097,60.176c2.049,25.82-0.191,50.484-5.847,64.366
		c-9.354,22.959,6.792,61.659,14.258,69.346c2.886,2.972,2.816,7.72-0.154,10.605C200.002,326.447,198.117,327.151,196.234,327.151z
		"/>
	<path style="fill:#A28577;" d="M180.406,249.752c-3.291,0-6.31-2.183-7.227-5.509c-9.678-35.11-33.404-45.322-49.104-52.079
		c-3.328-1.433-6.203-2.67-8.618-4.012c-3.621-2.011-4.925-6.577-2.913-10.198c2.011-3.62,6.574-4.928,10.198-2.913
		c1.754,0.974,4.307,2.073,7.263,3.345c16.092,6.926,46.044,19.816,57.636,61.871c1.101,3.993-1.244,8.123-5.237,9.224
		C181.736,249.664,181.065,249.752,180.406,249.752z"/>
	<path style="fill:#A28577;" d="M244.705,160.59c-0.044,0-0.088,0-0.133,0c-4.142-0.008-7.493-3.372-7.485-7.515
		c0.008-4.137,3.364-7.485,7.5-7.485c0.036-0.003,0.078,0,0.116,0c15.823,0,29.195-7.179,43.354-14.778
		c13.985-7.508,28.446-15.271,45.812-16.093c4.188-0.2,7.65,3,7.847,7.136c0.196,4.138-2.999,7.651-7.136,7.847
		c-13.974,0.662-26.338,7.3-39.429,14.326C279.981,152.17,264.296,160.59,244.705,160.59z"/>
	<path style="fill:#A28577;" d="M299.491,140.105c-13.735,0-26.724-5.953-37.652-17.28c-17.116-17.74-25.317-44.063-24.734-52.614
		c0.281-4.132,3.872-7.24,7.993-6.972c4.128,0.281,7.247,3.853,6.973,7.981c-0.145,3.921,6.287,26.828,21.147,41.787
		c8.279,8.335,17.475,12.399,27.332,12.081c4.1-0.118,7.605,3.113,7.738,7.254c0.134,4.14-3.114,7.605-7.254,7.738
		C300.519,140.096,300.005,140.105,299.491,140.105z"/>
	<path style="fill:#A28577;" d="M108.665,151.846c-1.295,0-2.606-0.335-3.802-1.04c-24.353-14.357-75.479-12.451-93.102-0.288
		c-3.407,2.354-8.079,1.497-10.433-1.913c-2.352-3.409-1.496-8.08,1.913-10.433c22.07-15.231,79.01-18.108,109.238-0.288
		c3.568,2.104,4.756,6.701,2.652,10.27C113.734,150.526,111.232,151.846,108.665,151.846z"/>
</g>
<g>
	<path style="fill:#DDAF89;" d="M196.237,104.006c-0.676,0-1.362-0.092-2.045-0.285c-3.986-1.128-6.304-5.272-5.176-9.258
		c2.585-9.138,0.689-17.746-5.795-26.318c-14.269-18.865-45.22-29.665-51.426-29.665c-4.142,0-7.5-3.357-7.5-7.5s3.357-7.5,7.5-7.5
		c10.578,0,45.891,12.48,63.389,35.616c9.249,12.228,12.107,25.869,8.266,39.449C202.515,101.849,199.508,104.006,196.237,104.006z"
		/>
	<path style="fill:#DDAF89;" d="M195.727,83.087c-0.895,0-1.807-0.161-2.692-0.503c-3.866-1.488-5.793-5.828-4.305-9.693
		c1.033-2.685,3.332-5.469,8.895-12.065c9.151-10.851,30.582-36.263,25.266-47.794c-1.734-3.762-0.092-8.217,3.67-9.951
		c3.765-1.733,8.218-0.09,9.951,3.67c9.311,20.192-13.682,47.456-27.42,63.746c-2.564,3.041-5.743,6.811-6.471,8.049
		C201.411,81.367,198.649,83.087,195.727,83.087z M202.728,78.279c-0.02,0.051-0.039,0.102-0.06,0.152
		C202.691,78.378,202.711,78.326,202.728,78.279z"/>
</g>
<path style="fill:#A28577;" d="M305.807,81c-2.016,0-4.024-0.808-5.503-2.401c-2.815-3.038-2.635-7.784,0.402-10.6l1.883-1.748
	c18.5-17.199,46.453-43.193,80.873-30.553c3.889,1.428,5.883,5.737,4.455,9.625c-1.427,3.888-5.739,5.883-9.625,4.455
	c-25.774-9.465-47.796,11.009-65.489,27.458l-1.9,1.765C309.461,80.339,307.632,81,305.807,81z"/>
<g>
	<path style="fill:#DDAF89;" d="M7.507,342.985c-0.091,0-0.183-0.002-0.274-0.005c-4.14-0.149-7.375-3.625-7.226-7.765
		c2.98-82.834,36.439-103.152,71.863-124.663c2.702-1.641,5.432-3.299,8.178-5.002c3.521-2.183,8.144-1.1,10.327,2.419
		c2.184,3.521,1.101,8.144-2.419,10.327c-2.788,1.73-5.558,3.411-8.3,5.077c-34.622,21.025-61.97,37.631-64.659,112.381
		C14.851,339.803,11.524,342.985,7.507,342.985z"/>
	<path style="fill:#DDAF89;" d="M71.862,326.797c-4.143,0-7.5-3.357-7.5-7.5c0-17.323-22.546-40.278-33.381-51.31
		c-2.311-2.354-4.138-4.212-5.469-5.706c-1.446-1.62-5.845-6.553-2.168-11.811c2.372-3.395,7.051-4.223,10.443-1.85
		c1.266,0.885,2.175,2.09,2.694,3.429c1.028,1.18,3.224,3.415,5.2,5.428c13.168,13.407,37.68,38.364,37.68,61.821
		C79.362,323.44,76.005,326.797,71.862,326.797z M35.644,259.054c-0.002,0.003-0.004,0.006-0.007,0.009
		C35.64,259.06,35.642,259.057,35.644,259.054z M35.65,259.045c-0.001,0.002-0.002,0.003-0.003,0.005
		C35.648,259.048,35.649,259.047,35.65,259.045z M35.656,259.036c-0.001,0.001-0.001,0.003-0.002,0.004
		C35.655,259.039,35.655,259.037,35.656,259.036z"/>
</g>
<g>
	<path style="fill:#A28577;" d="M63.943,452.991c-2.657,0-5.232-1.415-6.594-3.912c-7.461-13.678,0.307-61.524,21.088-84.517
		c2.778-3.072,7.521-3.311,10.594-0.535c3.072,2.778,3.313,7.521,0.535,10.594c-7.589,8.396-13.968,22.491-17.501,38.672
		c-3.431,15.709-2.699,26.384-1.545,28.608c1.983,3.637,0.642,8.189-2.994,10.173C66.386,452.696,65.156,452.991,63.943,452.991z"/>
	<path style="fill:#A28577;" d="M213.452,410.131c-1.075,0-2.167-0.232-3.203-0.723c-21.908-10.369-33.84-24.806-44.367-37.544
		c-14.275-17.273-25.552-30.918-57.737-33.186c-4.132-0.291-7.245-3.877-6.954-8.009s3.879-7.245,8.009-6.954
		c38.598,2.72,53.67,20.957,68.245,38.593c9.996,12.095,20.331,24.602,39.221,33.541c3.744,1.772,5.343,6.244,3.571,9.987
		C218.955,408.545,216.26,410.131,213.452,410.131z"/>
	<path style="fill:#A28577;" d="M243.706,377.092c-2.153,0-4.29-0.922-5.773-2.708c-8.782-10.575-28.819-5.324-44.92-1.106
		c-7.367,1.931-13.73,3.598-18.972,3.809c-4.146,0.188-7.629-3.055-7.795-7.193c-0.166-4.139,3.055-7.629,7.193-7.795
		c3.615-0.145,9.52-1.692,15.771-3.33c19.15-5.019,45.377-11.889,60.261,6.032c2.646,3.187,2.209,7.915-0.978,10.562
		C247.093,376.524,245.394,377.092,243.706,377.092z"/>
</g>
<g>
	<path style="fill:#DDAF89;" d="M149.748,509.612c-1.268,0-2.551-0.321-3.729-0.997c-3.592-2.063-4.831-6.647-2.769-10.239
		c12.709-22.128,13.781-45.601,3.189-69.767c-8.64-19.71-22.269-32.889-24.594-34.667c-3.29-2.517-3.918-7.224-1.402-10.514
		s7.223-3.917,10.514-1.402c5.615,4.294,20.146,19.858,29.221,40.562c12.431,28.359,11.075,57.149-3.92,83.259
		C154.872,508.261,152.345,509.612,149.748,509.612z"/>
	<path style="fill:#DDAF89;" d="M163.473,457.502c-2.107,0-4.04-0.288-5.846-0.969c-3.876-1.463-5.832-5.79-4.37-9.665
		c1.449-3.84,5.711-5.791,9.556-4.41c1.923,0.369,8.319-1.183,13.006-2.318c12.432-3.012,29.459-7.138,45.029-1.737
		c3.914,1.357,5.986,5.63,4.629,9.543c-1.357,3.914-5.626,5.986-9.543,4.629c-11.409-3.956-25.366-0.573-36.582,2.144
		C173.014,456.254,167.864,457.502,163.473,457.502z M162.921,442.497c0,0.001,0.001,0.001,0.002,0.001
		C162.922,442.498,162.921,442.498,162.921,442.497z"/>
</g>
<g>
	<path style="fill:#A28577;" d="M257.824,446.416c-2.484,0-4.915-1.233-6.343-3.488c-2.217-3.499-1.177-8.133,2.323-10.349
		c8.864-5.615,20.829-7.364,34.682-9.39c15.581-2.278,34.971-5.114,55.649-14.435c3.774-1.699,8.217-0.021,9.92,3.756
		c1.702,3.776,0.021,8.218-3.756,9.92c-22.594,10.183-43.137,13.187-59.643,15.601c-12.66,1.852-22.659,3.314-28.827,7.22
		C260.586,446.04,259.196,446.416,257.824,446.416z"/>
	<path style="fill:#A28577;" d="M381.576,462.939c-12.062,0-26.85-4.337-44.139-12.963c-16.096-8.031-28.455-16.858-28.973-17.23
		c-3.366-2.415-4.137-7.1-1.722-10.466c2.415-3.367,7.103-4.136,10.466-1.722c12.807,9.176,50.501,31.847,70.913,26.638
		c4.01-1.021,8.098,1.4,9.12,5.415c1.023,4.014-1.401,8.097-5.415,9.12C388.668,462.536,385.247,462.939,381.576,462.939z"/>
</g>
<g>
	<path style="fill:#DDAF89;" d="M302.51,387.943c-1.433,0-2.88-0.409-4.159-1.265c-3.444-2.301-4.371-6.959-2.07-10.402
		c22.631-33.873,73.056-43.186,119.397-47.827c4.112-0.415,7.796,2.594,8.21,6.716c0.412,4.121-2.594,7.797-6.716,8.21
		c-42.857,4.293-89.253,12.549-108.418,41.233C307.307,386.773,304.931,387.943,302.51,387.943z"/>
	<path style="fill:#DDAF89;" d="M428.622,400.226c-7.239,0-14.34-1.12-21.333-3.354c-24.104-7.696-42.53-27.358-57.376-45.577
		c-2.616-3.211-2.134-7.935,1.077-10.552c3.212-2.617,7.935-2.134,10.552,1.077c13.452,16.509,29.948,34.262,50.31,40.763
		c20.926,6.682,43.83,0.462,70.026-19.011c3.324-2.471,8.021-1.779,10.494,1.545c2.471,3.324,1.779,8.022-1.545,10.494
		C468.682,392.072,448.15,400.226,428.622,400.226z"/>
</g>
<g>
	<path style="fill:#A28577;" d="M449.88,293.608c-0.563,0-1.133-0.063-1.704-0.196c-4.034-0.938-6.546-4.968-5.608-9.003
		c3.901-16.794,14.312-30.659,24.378-44.067c11.664-15.535,22.681-30.209,20.491-46.48c-0.553-4.104,2.327-7.881,6.433-8.433
		c4.1-0.556,7.88,2.327,8.433,6.433c3.01,22.362-10.396,40.218-23.36,57.486c-9.133,12.165-18.577,24.744-21.763,38.456
		C456.374,291.268,453.289,293.608,449.88,293.608z"/>
	<path style="fill:#A28577;" d="M465.831,261.982c-3.669,0-6.777-2.66-7.387-6.229c-0.878-1.79-4.609-6.461-7.634-10.246
		c-13.727-17.181-36.702-45.936-26.46-73.003c1.465-3.875,5.795-5.829,9.669-4.36c3.874,1.466,5.826,5.795,4.36,9.669
		c-7.217,19.073,12.418,43.648,24.149,58.331c7.028,8.797,10.557,13.213,10.798,17.958c0.211,4.137-2.973,7.66-7.109,7.871
		C466.088,261.979,465.959,261.982,465.831,261.982z M458.346,254.862c0,0.003,0,0.006,0,0.008
		C458.346,254.868,458.346,254.865,458.346,254.862z"/>
	<path style="fill:#A28577;" d="M452.819,340.449c-1.398,0-2.811-0.39-4.071-1.205c-3.477-2.25-4.469-6.9-2.219-10.378
		c6.476-10.01,46.979-35.293,54.163-39.529c3.568-2.103,8.166-0.916,10.271,2.651c2.104,3.568,0.917,8.166-2.651,10.271
		c-21.116,12.451-46.424,30.725-49.197,34.769C457.68,339.244,455.275,340.449,452.819,340.449z"/>
</g>
<path style="fill:#DDAF89;" d="M128.008,109.163c-0.367,0-0.737-0.026-1.111-0.082c-6.696-0.994-15.698-5.248-22.934-10.837
	c-9.922-7.664-15.689-16.923-16.676-26.775c-0.413-4.122,2.594-7.798,6.715-8.211c4.123-0.41,7.798,2.593,8.211,6.715
	c1.283,12.809,19.304,23.146,26.887,24.271c4.097,0.608,6.926,4.423,6.317,8.521C134.864,106.487,131.662,109.163,128.008,109.163z"
	/>
<path style="fill:#A28577;" d="M101.568,285.744c-0.928,0-1.87-0.173-2.784-0.539c-3.846-1.538-5.716-5.903-4.177-9.749
	c2.777-6.942,20.958-24.781,31.229-27.872c3.964-1.193,8.148,1.054,9.343,5.02c1.193,3.967-1.054,8.149-5.02,9.343
	c-5.351,1.61-19.559,15.103-21.667,19.184C107.295,284.002,104.508,285.744,101.568,285.744z M108.533,281.028
	c-0.006,0.016-0.012,0.03-0.019,0.046C108.521,281.059,108.527,281.043,108.533,281.028z"/>
<g>
	<path style="fill:#DDAF89;" d="M56.091,193.682c-1.97,0-3.937-0.771-5.409-2.304c-2.87-2.987-2.774-7.735,0.212-10.604
		c8.407-8.077,22.51-10.699,31.508-9.068c4.076,0.739,6.781,4.643,6.042,8.718c-0.739,4.076-4.65,6.775-8.718,6.042
		c-5.213-0.945-14.069,0.928-18.439,5.125C59.833,192.987,57.961,193.682,56.091,193.682z"/>
	<path style="fill:#DDAF89;" d="M277.24,334.697c-1.766,0-3.538-0.62-4.965-1.881c-17.699-15.65-23.274-32.207-27.753-45.51
		c-4.682-13.902-8.064-23.947-22.589-30.923c-3.733-1.793-5.307-6.273-3.514-10.008c1.793-3.733,6.273-5.307,10.008-3.514
		c20.229,9.714,25.354,24.937,30.31,39.658c4.314,12.813,8.774,26.063,23.473,39.058c3.103,2.744,3.395,7.484,0.651,10.587
		C281.38,333.842,279.314,334.697,277.24,334.697z"/>
	<path style="fill:#DDAF89;" d="M264.524,293.341c-7.04,0-12.982-1.017-16.806-3.029c-3.665-1.929-5.073-6.465-3.144-10.13
		c1.929-3.664,6.464-5.073,10.13-3.144c2.386,1.256,12.591,2.372,26.435-0.595c4.047-0.867,8.036,1.712,8.905,5.763
		c0.867,4.051-1.713,8.037-5.763,8.905C277.321,292.603,270.523,293.341,264.524,293.341z"/>
	<path style="fill:#DDAF89;" d="M411.229,272.174c-0.354,0-0.711-0.025-1.07-0.076c-4.101-0.586-6.95-4.385-6.364-8.485
		c0.879-6.152-7.598-12.724-10.259-13.973c-3.427-0.595-6.084-3.525-6.205-7.139c-0.138-4.141,3.105-7.608,7.245-7.747
		c0.079-0.002,0.158-0.004,0.237-0.004c5.393,0,12.738,5.999,16.411,10.094c5.871,6.546,8.438,13.77,7.42,20.89
		C418.109,269.475,414.901,272.174,411.229,272.174z M395.078,249.746c-0.003,0-0.005,0-0.007,0
		C395.073,249.746,395.075,249.746,395.078,249.746z M393.255,249.52L393.255,249.52L393.255,249.52z"/>
	<path style="fill:#DDAF89;" d="M295.73,304.296c-1.919,0-3.839-0.732-5.303-2.196l-26.038-26.037
		c-2.93-2.929-2.93-7.678-0.001-10.606c2.93-2.93,7.679-2.929,10.606-0.001l26.038,26.037c2.93,2.929,2.93,7.678,0.001,10.606
		C299.569,303.564,297.649,304.296,295.73,304.296z"/>
</g>
<g>
	
		<ellipse transform="matrix(0.7071 -0.7071 0.7071 0.7071 -66.6344 239.1409)" style="fill:#F2937E;" cx="255.351" cy="200.005" rx="20.55" ry="25.805"/>
	
		<ellipse transform="matrix(-0.7071 0.7071 -0.7071 -0.7071 816.1179 259.8004)" style="fill:#F2937E;" cx="354.253" cy="298.924" rx="20.55" ry="25.805"/>
</g>
<g>
	<path style="fill:#495059;" d="M275.56,193.401c-1.919,0-3.839-0.732-5.304-2.196c-2.929-2.93-2.929-7.678,0-10.607l7.832-7.832
		c2.93-2.928,7.678-2.928,10.607,0c2.929,2.93,2.929,7.678,0,10.607l-7.832,7.832C279.399,192.669,277.479,193.401,275.56,193.401z"
		/>
	<path style="fill:#495059;" d="M302.75,251.517L302.75,251.517c-7.301-7.301-7.301-19.139,0-26.44l9.611-9.611
		c1.993-1.993,5.225-1.993,7.218,0l19.223,19.223c1.993,1.993,1.993,5.225,0,7.218l-9.611,9.611
		C321.889,258.818,310.051,258.818,302.75,251.517z"/>
	<path style="fill:#495059;" d="M368.365,286.206c-1.919,0-3.839-0.732-5.304-2.196c-2.929-2.93-2.929-7.678,0-10.607l7.832-7.832
		c2.93-2.928,7.678-2.928,10.607,0c2.929,2.93,2.929,7.678,0,10.607l-7.832,7.832C372.204,285.474,370.284,286.206,368.365,286.206z
		"/>
</g>
<g>
</g>
<g>
</g>
<g>
</g>
<g>
</g>
<g>
</g>
<g>
</g>
<g>
</g>
<g>
</g>
<g>
</g>
<g>
</g>
<g>
</g>
<g>
</g>
<g>
</g>
<g>
</g>
<g>
</g>
</svg>
