<svg height="512pt" viewBox="-26 0 512 512.03071" width="512pt" xmlns="http://www.w3.org/2000/svg"><path d="m459.050781 406.101562c-9.164062 18.183594-21.789062 34.40625-37.164062 47.753907-44.050781 38.84375-111.230469 58.175781-187.941407 58.175781-86.15625 0-161.457031-29.835938-202.0625-74.328125-8.722656-9.417969-16.007812-20.066406-21.628906-31.601563-6.664062-13.765624-10.1640622-28.847656-10.238281-44.140624v-172.402344c0-101.957032 80.59375-187.9375 182.554687-189.527344 14.785157-.273438 29.550782 1.269531 43.960938 4.589844 84.378906 19.21875 144.242188 94.25 144.242188 180.789062v143.890625c-.230469 17.167969 4.0625 34.09375 12.449218 49.082031 11.652344 20.035157 36.457032 36.808594 75.828125 27.71875zm0 0" fill="#d1d4d1"/><path d="m421.886719 453.855469c-44.050781 38.84375-111.230469 58.175781-187.941407 58.175781-86.15625 0-161.457031-29.835938-202.0625-74.328125v-258.296875c-.777343-88.535156 70.359376-160.9375 158.898438-161.71875 10.769531-.015625 21.507812 1.109375 32.042969 3.351562 30.53125 6.398438 58.484375 21.695313 80.332031 43.960938 29.902344 30.566406 46.609375 71.648438 46.519531 114.40625v197.652344s0 54.996094 72.210938 76.796875zm0 0" fill="#e6e7e8"/><path d="m114.773438 317.824219v44.136719c0 19.503906-15.808594 35.3125-35.308594 35.3125-19.503906 0-35.3125-15.808594-35.3125-35.3125v-44.136719" fill="#a5a5a4"/><path d="m114.773438 300.167969v35.3125c0 19.5-15.808594 35.308593-35.308594 35.308593-19.503906 0-35.3125-15.808593-35.3125-35.308593v-35.3125c0-4.875 3.953125-8.828125 8.828125-8.828125h52.964843c4.875 0 8.828126 3.953125 8.828126 8.828125zm0 0" fill="#d1d4d1"/><path d="m61.808594 282.511719h35.308594v70.621093c0 9.753907-7.902344 17.65625-17.652344 17.65625s-17.65625-7.902343-17.65625-17.65625zm0 0" fill="#e6e7e8"/><path d="m300.152344 317.824219v44.136719c0 19.503906-15.808594 35.3125-35.308594 35.3125-19.503906 0-35.3125-15.808594-35.3125-35.3125v-44.136719" fill="#a5a5a4"/><path d="m300.152344 300.167969v35.3125c0 19.5-15.808594 35.308593-35.308594 35.308593-19.503906 0-35.3125-15.808593-35.3125-35.308593v-35.3125c0-4.875 3.953125-8.828125 8.828125-8.828125h52.964844c4.875 0 8.828125 3.953125 8.828125 8.828125zm0 0" fill="#d1d4d1"/><path d="m247.1875 282.511719h35.3125v70.621093c0 9.753907-7.90625 17.65625-17.65625 17.65625s-17.65625-7.902343-17.65625-17.65625zm0 0" fill="#e6e7e8"/><path d="m105.945312 167.753906c0-24.375-11.855468-44.136718-26.480468-44.136718-14.628906 0-26.484375 19.761718-26.484375 44.136718 0 24.378906 11.855469 44.140625 26.484375 44.140625 14.625 0 26.480468-19.761719 26.480468-44.140625zm0 0" fill="#2c3e50"/><path d="m79.464844 158.925781c0-9.75-3.953125-17.652343-8.828125-17.652343s-8.828125 7.902343-8.828125 17.652343c0 9.753907 3.953125 17.65625 8.828125 17.65625s8.828125-7.902343 8.828125-17.65625zm0 0" fill="#fff"/><path d="m273.671875 167.753906c0-24.375-11.859375-44.136718-26.484375-44.136718s-26.484375 19.761718-26.484375 44.136718c0 24.378906 11.859375 44.140625 26.484375 44.140625s26.484375-19.761719 26.484375-44.140625zm0 0" fill="#2c3e50"/><path d="m203.050781 256.03125c-3.683593 0-6.984375-2.285156-8.273437-5.738281-1.480469-4.054688-3.707032-7.796875-6.558594-11.035157-2.613281-2.996093-5.800781-5.4375-9.375-7.175781-7.015625-3.375-15.183594-3.375-22.199219 0-3.578125 1.738281-6.773437 4.175781-9.386719 7.175781-2.847656 3.238282-5.074218 6.976563-6.558593 11.027344-1.101563 2.953125-3.699219 5.09375-6.808594 5.617188-3.113281.523437-6.265625-.65625-8.273437-3.089844-2.007813-2.433594-2.5625-5.753906-1.460938-8.707031 2.246094-6.078125 5.59375-11.683594 9.878906-16.542969 4.183594-4.773438 9.289063-8.652344 15.007813-11.40625 11.839843-5.667969 25.613281-5.667969 37.457031 0 5.714844 2.753906 10.820312 6.632812 15.003906 11.40625 4.285156 4.859375 7.632813 10.464844 9.878906 16.542969 1.707032 4.566406-.605468 9.652343-5.171874 11.359375-1.011719.378906-2.082032.570312-3.160157.566406zm0 0" fill="#2c3e50"/><path d="m247.1875 158.925781c0-9.75-3.953125-17.652343-8.828125-17.652343s-8.828125 7.902343-8.828125 17.652343c0 9.753907 3.953125 17.65625 8.828125 17.65625s8.828125-7.902343 8.828125-17.65625zm0 0" fill="#fff"/></svg>